<?xml version="1.0" encoding="utf-8"?>
<!-- Generator: Adobe Illustrator 24.1.0, SVG Export Plug-In . SVG Version: 6.00 Build 0)  -->
<svg version="1.1" id="Layer_1" xmlns="http://www.w3.org/2000/svg" xmlns:xlink="http://www.w3.org/1999/xlink" x="0px" y="0px"
	 viewBox="0 0 600 600" style="enable-background:new 0 0 600 600;" xml:space="preserve">
<style type="text/css">
	.st0{fill:#070500;}
	.st1{fill:#560D02;}
	.st2{fill:#AF0808;}
</style>
<g>
	<path d="M19.8,105.4c0-37.4,23.6-62.8,57.7-62.8c11.4,0,19.6,1.9,25.9,4.9l-3.7,23.9h-8.4l-0.8-19.5c-3.3-1.5-6.9-2.2-12.5-2.2
		c-8.2,0-14.8,2.7-20.8,8.8c-10.1,9.9-17,32.5-17,51.2c0,18,5.2,28.1,21.4,28.1c4.3,0,8.6-0.8,11.9-2.3l5.5-30.3l-10.8-2.6l1.1-5.3
		h37.4l-1,5.3l-9.6,2.6l-6.3,35.1c-9.3,3.4-18,4.5-28.8,4.5C33.6,144.7,19.8,130.3,19.8,105.4z"/>
	<path d="M112.9,114.4c0-24.1,15.9-46.6,41.3-46.6c20.2,0,28.8,14.1,28.8,30.2c-0.1,24.1-15.8,46.6-41.3,46.6
		C121.7,144.6,112.9,130.5,112.9,114.4z M153.8,131.8c7-9.3,11.9-28.7,11.9-42c0-9.9-3.3-15.8-11.7-15.8c-4.5,0-8.5,2.5-12.2,6.9
		c-6.9,9.3-11.8,28.4-11.8,41.6c0,10,3.6,16,11.8,16C146.2,138.6,150.2,136.2,153.8,131.8z"/>
	<path d="M188.6,114.4c0-24.1,15.9-46.6,41.3-46.6c20.2,0,28.8,14.1,28.8,30.2c-0.1,24.1-15.8,46.6-41.3,46.6
		C197.4,144.6,188.6,130.5,188.6,114.4z M229.5,131.8c7-9.3,11.9-28.7,11.9-42c0-9.9-3.3-15.8-11.7-15.8c-4.5,0-8.5,2.5-12.2,6.9
		c-6.9,9.3-11.8,28.4-11.8,41.6c0,10,3.6,16,11.8,16C221.9,138.6,225.9,136.2,229.5,131.8z"/>
	<path d="M263.8,123.2c0-29.2,18-55.4,43.5-55.4c5.1,0,10.1,1,14.1,3.3l6.3-27.8h-11l1.1-5.6l27-3.6l1.6,1.1l-22.9,100.5l11.9-0.3
		l-1.4,4.9c-5.1,2.3-12.6,4.1-18.4,4.1c-7,0-9.1-3.8-7.8-10.2l2.1-9.1h-0.7c-7.7,11-17.8,19.3-28.3,19.3S263.8,135.7,263.8,123.2z
		 M310.9,115.9l8.6-37.4c-3.2-2.6-6.7-4.3-10.8-4.3c-16.7,0-27.7,28-27.7,48.1c0,6.2,2.6,11,7.4,11
		C295.4,133.4,304.1,125,310.9,115.9z"/>
	<path d="M344.1,136.1l21.1-92.9h-11l1.1-5.6l27.2-3.7L384,35l-11.7,51.3h0.5c8.4-11.1,17-18.5,27.2-18.5c10.4,0,17.3,8.9,17.3,21.5
		c0,29.1-18,55.7-45.7,55.3C361,144.6,351.8,141.7,344.1,136.1z M400.1,90c0-6.2-2.6-11-7.4-11c-6.9,0-14.8,7.4-22.6,18.4l-8.6,37.6
		c3.2,2.5,6.2,3.4,10.6,3.4C388.7,138.4,400.1,110.6,400.1,90z"/>
	<path d="M410.4,155.4l3.8,9.7h1c7,0,16.2-6,23.6-14.4c-0.4-27-4.4-60.8-6.9-73.8l-10.1,0.1l1.2-5.6c4.8-1.8,11.5-3.6,16.7-3.6
		c6.2,0,8.5,1.9,9.7,8.5c2.2,12.5,4.8,42.4,4.4,60.8h0.4c10.8-14.8,18.5-31,21.8-42.9c1.1-4.3,1.5-7.3,1.5-10.2
		c0-5.3-2.3-8.2-7.7-8.2l1-5.5c4.1-1.5,7.5-2.5,11.4-2.5c5.6,0,8.9,2.9,8.9,10.2c0,4.7-1.5,10.8-4.5,18
		c-6.7,16.2-19.5,36.3-32.2,50.3c-13.4,15.2-27,26.2-41.1,26.2c-8.2,0-12.9-3.4-12.9-9.6c0-4.4,3.3-7.5,8-7.5H410.4z"/>
	<path d="M520.7,144.6c-18.7,0-26.7-12.9-26.7-28.4c0-28.4,21.5-48.4,43.3-48.4c12.2,0,19.8,5.5,19.8,15.5
		c0,16.6-18.9,24.3-46.1,27.4c-0.1,1.2-0.1,2.3-0.1,3.6c0,12.1,4.3,19.6,16.5,19.6c8.5,0,16-3.6,22.1-8.2l-1.4,7.8
		C543,138.4,533.3,144.6,520.7,144.6z M511.7,104.6c18-2.3,30.9-9.1,30.9-21.8c0-4.8-1.9-7.8-6.4-7.8
		C524.6,74.9,514.6,88.4,511.7,104.6z"/>
</g>
<g>
	<path class="st0" d="M109.3,183.3l-9.9,28.9h-20v-35.8c12.3-4.9,27.3-7.3,44.1-7.3c35,0,49.6,14.8,49.6,35.2
		c0,21.8-16.6,35.2-50,48.8l-16.8,6.7v0.6h67.4l-2.4,31.2H78.2v-28.5l25.5-19.6c17.4-13.6,21.6-26.3,21.6-39
		c0-12.5-3.2-21.8-11.1-21.8C112,182.9,110.7,183.1,109.3,183.3z"/>
	<path class="st0" d="M182.8,231.9c0-44.7,30.3-63.3,61.7-63.3c33.6,0,59.7,19.4,59.7,62.1c0,44.5-30.7,63.3-61.3,63.3
		C208.7,294,182.8,274.6,182.8,231.9z M254.6,232.5c0-42.5-2.8-49.2-11.1-49.2c-7.7,0-11.1,8.5-11.1,46.9c0,41.5,2.2,49.2,11.1,49.2
		C250.7,279.4,254.6,270.9,254.6,232.5z"/>
	<path class="st0" d="M333.9,180.9l-6.1,25.1h-11.7v-29.9c10.3-4,24.5-7.1,39-7.1c26.7,0,42.1,12.7,42.1,35c0,22-16,38.2-45.7,57.1
		l-18.2,12.3v0.4h65.9l-1.8,17.8h-85v-13.4l29.9-24.9c21-17.8,28.3-33,28.3-48.1c0-16.2-5.7-26.3-21.2-26.3
		C342.8,178.9,338.3,179.7,333.9,180.9z"/>
	<path class="st0" d="M411.8,232.1c0-42.3,26.1-63.3,54.4-63.3c27.9,0,52.8,20.4,52.8,62.1S493.9,294,465,294
		C436.5,294,411.8,273,411.8,232.1z M491.1,232.3c0-35.8-7.3-53.2-25.7-53.2c-18,0-25.9,16.2-25.9,51.6c0,35.6,7.7,53,26.3,53
		C484.2,283.7,491.1,267.7,491.1,232.3z"/>
</g>
<g>
	<path class="st1" d="M23.8,100.4c0-37.4,23.6-62.8,57.7-62.8c11.4,0,19.6,1.9,25.9,4.9l-3.7,23.9h-8.4l-0.8-19.5
		c-3.3-1.5-6.9-2.2-12.5-2.2c-8.2,0-14.8,2.7-20.8,8.8c-10.1,9.9-17,32.5-17,51.2c0,18,5.2,28.1,21.4,28.1c4.3,0,8.6-0.8,11.9-2.3
		l5.5-30.3l-10.8-2.6l1.1-5.3h37.4l-1,5.3l-9.6,2.6l-6.3,35.1c-9.3,3.4-18,4.5-28.8,4.5C37.6,139.7,23.8,125.3,23.8,100.4z"/>
	<path class="st1" d="M116.9,109.4c0-24.1,15.9-46.6,41.3-46.6c20.2,0,28.8,14.1,28.8,30.2c-0.1,24.1-15.8,46.6-41.3,46.6
		C125.7,139.6,116.9,125.5,116.9,109.4z M157.8,126.8c7-9.3,11.9-28.7,11.9-42c0-9.9-3.3-15.8-11.7-15.8c-4.5,0-8.5,2.5-12.2,6.9
		c-6.9,9.3-11.8,28.4-11.8,41.6c0,10,3.6,16,11.8,16C150.2,133.6,154.2,131.2,157.8,126.8z"/>
	<path class="st1" d="M192.6,109.4c0-24.1,15.9-46.6,41.3-46.6c20.2,0,28.8,14.1,28.8,30.2c-0.1,24.1-15.8,46.6-41.3,46.6
		C201.4,139.6,192.6,125.5,192.6,109.4z M233.5,126.8c7-9.3,11.9-28.7,11.9-42c0-9.9-3.3-15.8-11.7-15.8c-4.5,0-8.5,2.5-12.2,6.9
		c-6.9,9.3-11.8,28.4-11.8,41.6c0,10,3.6,16,11.8,16C225.9,133.6,229.9,131.2,233.5,126.8z"/>
	<path class="st1" d="M267.8,118.2c0-29.2,18-55.4,43.5-55.4c5.1,0,10.1,1,14.1,3.3l6.3-27.8h-11l1.1-5.6l27-3.6l1.6,1.1
		l-22.9,100.5l11.9-0.3l-1.4,4.9c-5.1,2.3-12.6,4.1-18.4,4.1c-7,0-9.1-3.8-7.8-10.2l2.1-9.1h-0.7c-7.7,11-17.8,19.3-28.3,19.3
		S267.8,130.7,267.8,118.2z M314.9,110.9l8.6-37.4c-3.2-2.6-6.7-4.3-10.8-4.3c-16.7,0-27.7,28-27.7,48.1c0,6.2,2.6,11,7.4,11
		C299.4,128.4,308.1,120,314.9,110.9z"/>
	<path class="st1" d="M348.1,131.1l21.1-92.9h-11l1.1-5.6l27.2-3.7L388,30l-11.7,51.3h0.5c8.4-11.1,17-18.5,27.2-18.5
		c10.4,0,17.3,8.9,17.3,21.5c0,29.1-18,55.7-45.7,55.3C365,139.6,355.8,136.7,348.1,131.1z M404.1,85c0-6.2-2.6-11-7.4-11
		c-6.9,0-14.8,7.4-22.6,18.4l-8.6,37.6c3.2,2.5,6.2,3.4,10.6,3.4C392.7,133.4,404.1,105.6,404.1,85z"/>
	<path class="st1" d="M414.4,150.4l3.8,9.7h1c7,0,16.2-6,23.6-14.4c-0.4-27-4.4-60.8-6.9-73.8l-10.1,0.1l1.2-5.6
		c4.8-1.8,11.5-3.6,16.7-3.6c6.2,0,8.5,1.9,9.7,8.5c2.2,12.5,4.8,42.4,4.4,60.8h0.4c10.8-14.8,18.5-31,21.8-42.9
		c1.1-4.3,1.5-7.3,1.5-10.2c0-5.3-2.3-8.2-7.7-8.2l1-5.5c4.1-1.5,7.5-2.5,11.4-2.5c5.6,0,8.9,2.9,8.9,10.2c0,4.7-1.5,10.8-4.5,18
		c-6.7,16.2-19.5,36.3-32.2,50.3c-13.4,15.2-27,26.2-41.1,26.2c-8.2,0-12.9-3.4-12.9-9.6c0-4.4,3.3-7.5,8-7.5H414.4z"/>
	<path class="st1" d="M524.7,139.6c-18.7,0-26.7-12.9-26.7-28.4c0-28.4,21.5-48.4,43.3-48.4c12.2,0,19.8,5.5,19.8,15.5
		c0,16.6-18.9,24.3-46.1,27.4c-0.1,1.2-0.1,2.3-0.1,3.6c0,12.1,4.3,19.6,16.5,19.6c8.5,0,16-3.6,22.1-8.2l-1.4,7.8
		C547,133.4,537.3,139.6,524.7,139.6z M515.7,99.6c18-2.3,30.9-9.1,30.9-21.8c0-4.8-1.9-7.8-6.4-7.8
		C528.6,69.9,518.6,83.4,515.7,99.6z"/>
</g>
<g>
	<path class="st2" d="M113.3,178.3l-9.9,28.9h-20v-35.8c12.3-4.9,27.3-7.3,44.1-7.3c35,0,49.6,14.8,49.6,35.2
		c0,21.8-16.6,35.2-50,48.8l-16.8,6.7v0.6h67.4l-2.4,31.2H82.2v-28.5l25.5-19.6c17.4-13.6,21.6-26.3,21.6-39
		c0-12.5-3.2-21.8-11.1-21.8C116,177.9,114.7,178.1,113.3,178.3z"/>
	<path class="st2" d="M186.8,226.9c0-44.7,30.3-63.3,61.7-63.3c33.6,0,59.7,19.4,59.7,62.1c0,44.5-30.7,63.3-61.3,63.3
		C212.7,289,186.8,269.6,186.8,226.9z M258.6,227.5c0-42.5-2.8-49.2-11.1-49.2c-7.7,0-11.1,8.5-11.1,46.9c0,41.5,2.2,49.2,11.1,49.2
		C254.7,274.4,258.6,265.9,258.6,227.5z"/>
	<path class="st2" d="M337.9,175.9l-6.1,25.1h-11.7v-29.9c10.3-4,24.5-7.1,39-7.1c26.7,0,42.1,12.7,42.1,35c0,22-16,38.2-45.7,57.1
		l-18.2,12.3v0.4h65.9l-1.8,17.8h-85v-13.4l29.9-24.9c21-17.8,28.3-33,28.3-48.1c0-16.2-5.7-26.3-21.2-26.3
		C346.8,173.9,342.3,174.7,337.9,175.9z"/>
	<path class="st2" d="M415.8,227.1c0-42.3,26.1-63.3,54.4-63.3c27.9,0,52.8,20.4,52.8,62.1S497.9,289,469,289
		C440.5,289,415.8,268,415.8,227.1z M495.1,227.3c0-35.8-7.3-53.2-25.7-53.2c-18,0-25.9,16.2-25.9,51.6c0,35.6,7.7,53,26.3,53
		C488.2,278.7,495.1,262.7,495.1,227.3z"/>
</g>
<polygon class="st2" points="198,247 230,280 250,282 275,268 281,203 262,175 244.5,168.6 221,186 "/>
</svg>
